<mxfile host="Electron" modified="2023-09-15T02:19:31.673Z" agent="Mozilla/5.0 (Windows NT 10.0; Win64; x64) AppleWebKit/537.36 (KHTML, like Gecko) draw.io/21.7.5 Chrome/114.0.5735.289 Electron/25.8.1 Safari/537.36" etag="r2VZgSS2AinUzW0vXdfe" version="21.7.5" type="device">
  <diagram name="Page-1" id="em1uc9pXoL2Cgpf5kYhE">
    <mxGraphModel dx="2049" dy="1206" grid="1" gridSize="10" guides="1" tooltips="1" connect="1" arrows="1" fold="1" page="1" pageScale="1" pageWidth="850" pageHeight="1100" math="0" shadow="0">
      <root>
        <mxCell id="0" />
        <mxCell id="1" parent="0" />
        <mxCell id="H0clVwA6AM328Si9RoTj-1" value="&lt;font style=&quot;font-size: 14px;&quot; color=&quot;#9933ff&quot;&gt;Barrel&lt;/font&gt;" style="rounded=0;whiteSpace=wrap;html=1;fillColor=none;strokeWidth=5;" vertex="1" parent="1">
          <mxGeometry x="40" y="360" width="1610" height="40" as="geometry" />
        </mxCell>
        <mxCell id="H0clVwA6AM328Si9RoTj-2" value="Projectile" style="rounded=1;whiteSpace=wrap;html=1;" vertex="1" parent="1">
          <mxGeometry x="90" y="370" width="120" height="20" as="geometry" />
        </mxCell>
        <mxCell id="H0clVwA6AM328Si9RoTj-3" value="Solenoid" style="shape=process;whiteSpace=wrap;html=1;backgroundOutline=1;fillColor=#0050ef;fontColor=#ffffff;strokeColor=#001DBC;" vertex="1" parent="1">
          <mxGeometry x="310" y="350" width="120" height="60" as="geometry" />
        </mxCell>
        <mxCell id="H0clVwA6AM328Si9RoTj-35" style="edgeStyle=orthogonalEdgeStyle;rounded=0;orthogonalLoop=1;jettySize=auto;html=1;exitX=0.5;exitY=0;exitDx=0;exitDy=0;entryX=0;entryY=0.5;entryDx=0;entryDy=0;" edge="1" parent="1" source="H0clVwA6AM328Si9RoTj-4" target="H0clVwA6AM328Si9RoTj-12">
          <mxGeometry relative="1" as="geometry">
            <Array as="points">
              <mxPoint x="370" y="270" />
              <mxPoint x="570" y="270" />
              <mxPoint x="570" y="330" />
            </Array>
          </mxGeometry>
        </mxCell>
        <mxCell id="H0clVwA6AM328Si9RoTj-36" value="Start" style="edgeLabel;html=1;align=center;verticalAlign=middle;resizable=0;points=[];" vertex="1" connectable="0" parent="H0clVwA6AM328Si9RoTj-35">
          <mxGeometry x="0.0063" relative="1" as="geometry">
            <mxPoint as="offset" />
          </mxGeometry>
        </mxCell>
        <mxCell id="H0clVwA6AM328Si9RoTj-4" value="Control" style="rounded=1;whiteSpace=wrap;html=1;fillColor=#008a00;fontColor=#ffffff;strokeColor=#005700;" vertex="1" parent="1">
          <mxGeometry x="307.5" y="310" width="125" height="40" as="geometry" />
        </mxCell>
        <mxCell id="H0clVwA6AM328Si9RoTj-5" value="" style="endArrow=none;html=1;rounded=0;fillColor=#a20025;strokeColor=#6F0000;strokeWidth=5;" edge="1" parent="1">
          <mxGeometry width="50" height="50" relative="1" as="geometry">
            <mxPoint x="440" y="420" as="sourcePoint" />
            <mxPoint x="440" y="350" as="targetPoint" />
          </mxGeometry>
        </mxCell>
        <mxCell id="H0clVwA6AM328Si9RoTj-7" value="Beam" style="edgeLabel;html=1;align=center;verticalAlign=middle;resizable=0;points=[];" vertex="1" connectable="0" parent="H0clVwA6AM328Si9RoTj-5">
          <mxGeometry y="1" relative="1" as="geometry">
            <mxPoint x="11" y="-5" as="offset" />
          </mxGeometry>
        </mxCell>
        <mxCell id="H0clVwA6AM328Si9RoTj-33" style="edgeStyle=orthogonalEdgeStyle;rounded=0;orthogonalLoop=1;jettySize=auto;html=1;exitX=0.5;exitY=0;exitDx=0;exitDy=0;entryX=0.75;entryY=0;entryDx=0;entryDy=0;" edge="1" parent="1" source="H0clVwA6AM328Si9RoTj-6" target="H0clVwA6AM328Si9RoTj-4">
          <mxGeometry relative="1" as="geometry" />
        </mxCell>
        <mxCell id="H0clVwA6AM328Si9RoTj-34" value="Reset" style="edgeLabel;html=1;align=center;verticalAlign=middle;resizable=0;points=[];" vertex="1" connectable="0" parent="H0clVwA6AM328Si9RoTj-33">
          <mxGeometry x="-0.3444" relative="1" as="geometry">
            <mxPoint as="offset" />
          </mxGeometry>
        </mxCell>
        <mxCell id="H0clVwA6AM328Si9RoTj-6" value="Optical Sensor" style="rounded=0;whiteSpace=wrap;html=1;" vertex="1" parent="1">
          <mxGeometry x="430" y="310" width="70" height="40" as="geometry" />
        </mxCell>
        <mxCell id="H0clVwA6AM328Si9RoTj-9" style="edgeStyle=orthogonalEdgeStyle;rounded=0;orthogonalLoop=1;jettySize=auto;html=1;exitX=0.5;exitY=1;exitDx=0;exitDy=0;entryX=0;entryY=0.5;entryDx=0;entryDy=0;" edge="1" parent="1" source="H0clVwA6AM328Si9RoTj-8" target="H0clVwA6AM328Si9RoTj-4">
          <mxGeometry relative="1" as="geometry" />
        </mxCell>
        <mxCell id="H0clVwA6AM328Si9RoTj-10" value="start" style="edgeLabel;html=1;align=center;verticalAlign=middle;resizable=0;points=[];" vertex="1" connectable="0" parent="H0clVwA6AM328Si9RoTj-9">
          <mxGeometry x="0.6" y="2" relative="1" as="geometry">
            <mxPoint x="-44" y="2" as="offset" />
          </mxGeometry>
        </mxCell>
        <mxCell id="H0clVwA6AM328Si9RoTj-64" style="edgeStyle=orthogonalEdgeStyle;rounded=0;orthogonalLoop=1;jettySize=auto;html=1;exitX=1;exitY=0.5;exitDx=0;exitDy=0;entryX=0;entryY=0.5;entryDx=0;entryDy=0;" edge="1" parent="1" source="H0clVwA6AM328Si9RoTj-8" target="H0clVwA6AM328Si9RoTj-63">
          <mxGeometry relative="1" as="geometry" />
        </mxCell>
        <mxCell id="H0clVwA6AM328Si9RoTj-65" value="Start Time Reference {T0}" style="edgeLabel;html=1;align=center;verticalAlign=middle;resizable=0;points=[];" vertex="1" connectable="0" parent="H0clVwA6AM328Si9RoTj-64">
          <mxGeometry x="0.1684" y="-3" relative="1" as="geometry">
            <mxPoint x="-21" y="-3" as="offset" />
          </mxGeometry>
        </mxCell>
        <mxCell id="H0clVwA6AM328Si9RoTj-8" value="Trigger&amp;nbsp;&lt;br&gt;{Button}" style="rounded=0;whiteSpace=wrap;html=1;" vertex="1" parent="1">
          <mxGeometry x="80" y="170" width="100" height="40" as="geometry" />
        </mxCell>
        <mxCell id="H0clVwA6AM328Si9RoTj-11" value="Solenoid" style="shape=process;whiteSpace=wrap;html=1;backgroundOutline=1;fillColor=#0050ef;fontColor=#ffffff;strokeColor=#001DBC;" vertex="1" parent="1">
          <mxGeometry x="592.5" y="350" width="120" height="60" as="geometry" />
        </mxCell>
        <mxCell id="H0clVwA6AM328Si9RoTj-12" value="Control" style="rounded=1;whiteSpace=wrap;html=1;fillColor=#008a00;fontColor=#ffffff;strokeColor=#005700;" vertex="1" parent="1">
          <mxGeometry x="590" y="310" width="125" height="40" as="geometry" />
        </mxCell>
        <mxCell id="H0clVwA6AM328Si9RoTj-13" value="" style="endArrow=none;html=1;rounded=0;fillColor=#a20025;strokeColor=#6F0000;strokeWidth=5;" edge="1" parent="1">
          <mxGeometry width="50" height="50" relative="1" as="geometry">
            <mxPoint x="722.5" y="420" as="sourcePoint" />
            <mxPoint x="722.5" y="350" as="targetPoint" />
          </mxGeometry>
        </mxCell>
        <mxCell id="H0clVwA6AM328Si9RoTj-14" value="Beam" style="edgeLabel;html=1;align=center;verticalAlign=middle;resizable=0;points=[];" vertex="1" connectable="0" parent="H0clVwA6AM328Si9RoTj-13">
          <mxGeometry y="1" relative="1" as="geometry">
            <mxPoint x="11" y="-5" as="offset" />
          </mxGeometry>
        </mxCell>
        <mxCell id="H0clVwA6AM328Si9RoTj-15" value="Optical Sensor" style="rounded=0;whiteSpace=wrap;html=1;" vertex="1" parent="1">
          <mxGeometry x="712.5" y="310" width="70" height="40" as="geometry" />
        </mxCell>
        <mxCell id="H0clVwA6AM328Si9RoTj-16" value="Solenoid" style="shape=process;whiteSpace=wrap;html=1;backgroundOutline=1;fillColor=#0050ef;fontColor=#ffffff;strokeColor=#001DBC;" vertex="1" parent="1">
          <mxGeometry x="872.5" y="350" width="120" height="60" as="geometry" />
        </mxCell>
        <mxCell id="H0clVwA6AM328Si9RoTj-17" value="Control" style="rounded=1;whiteSpace=wrap;html=1;fillColor=#008a00;fontColor=#ffffff;strokeColor=#005700;" vertex="1" parent="1">
          <mxGeometry x="870" y="310" width="125" height="40" as="geometry" />
        </mxCell>
        <mxCell id="H0clVwA6AM328Si9RoTj-18" value="" style="endArrow=none;html=1;rounded=0;fillColor=#a20025;strokeColor=#6F0000;strokeWidth=5;" edge="1" parent="1">
          <mxGeometry width="50" height="50" relative="1" as="geometry">
            <mxPoint x="1002.5" y="420" as="sourcePoint" />
            <mxPoint x="1002.5" y="350" as="targetPoint" />
          </mxGeometry>
        </mxCell>
        <mxCell id="H0clVwA6AM328Si9RoTj-19" value="Beam" style="edgeLabel;html=1;align=center;verticalAlign=middle;resizable=0;points=[];" vertex="1" connectable="0" parent="H0clVwA6AM328Si9RoTj-18">
          <mxGeometry y="1" relative="1" as="geometry">
            <mxPoint x="11" y="-5" as="offset" />
          </mxGeometry>
        </mxCell>
        <mxCell id="H0clVwA6AM328Si9RoTj-20" value="Optical Sensor" style="rounded=0;whiteSpace=wrap;html=1;" vertex="1" parent="1">
          <mxGeometry x="992.5" y="310" width="70" height="40" as="geometry" />
        </mxCell>
        <mxCell id="H0clVwA6AM328Si9RoTj-21" value="Solenoid" style="shape=process;whiteSpace=wrap;html=1;backgroundOutline=1;fillColor=#0050ef;fontColor=#ffffff;strokeColor=#001DBC;" vertex="1" parent="1">
          <mxGeometry x="1152.5" y="350" width="120" height="60" as="geometry" />
        </mxCell>
        <mxCell id="H0clVwA6AM328Si9RoTj-22" value="Control" style="rounded=1;whiteSpace=wrap;html=1;fillColor=#008a00;fontColor=#ffffff;strokeColor=#005700;" vertex="1" parent="1">
          <mxGeometry x="1150" y="310" width="125" height="40" as="geometry" />
        </mxCell>
        <mxCell id="H0clVwA6AM328Si9RoTj-23" value="" style="endArrow=none;html=1;rounded=0;fillColor=#a20025;strokeColor=#6F0000;strokeWidth=5;" edge="1" parent="1">
          <mxGeometry width="50" height="50" relative="1" as="geometry">
            <mxPoint x="1282.5" y="420" as="sourcePoint" />
            <mxPoint x="1282.5" y="350" as="targetPoint" />
          </mxGeometry>
        </mxCell>
        <mxCell id="H0clVwA6AM328Si9RoTj-24" value="Beam" style="edgeLabel;html=1;align=center;verticalAlign=middle;resizable=0;points=[];" vertex="1" connectable="0" parent="H0clVwA6AM328Si9RoTj-23">
          <mxGeometry y="1" relative="1" as="geometry">
            <mxPoint x="11" y="-5" as="offset" />
          </mxGeometry>
        </mxCell>
        <mxCell id="H0clVwA6AM328Si9RoTj-25" value="Optical Sensor" style="rounded=0;whiteSpace=wrap;html=1;" vertex="1" parent="1">
          <mxGeometry x="1272.5" y="310" width="70" height="40" as="geometry" />
        </mxCell>
        <mxCell id="H0clVwA6AM328Si9RoTj-66" style="edgeStyle=orthogonalEdgeStyle;rounded=0;orthogonalLoop=1;jettySize=auto;html=1;exitX=0.5;exitY=0;exitDx=0;exitDy=0;entryX=1;entryY=0.5;entryDx=0;entryDy=0;" edge="1" parent="1" source="H0clVwA6AM328Si9RoTj-26" target="H0clVwA6AM328Si9RoTj-63">
          <mxGeometry relative="1" as="geometry" />
        </mxCell>
        <mxCell id="H0clVwA6AM328Si9RoTj-67" value="Times for estimating speed off of posistion {T1 and T2}" style="edgeLabel;html=1;align=center;verticalAlign=middle;resizable=0;points=[];" vertex="1" connectable="0" parent="H0clVwA6AM328Si9RoTj-66">
          <mxGeometry x="-0.0516" y="-2" relative="1" as="geometry">
            <mxPoint x="1" as="offset" />
          </mxGeometry>
        </mxCell>
        <mxCell id="H0clVwA6AM328Si9RoTj-26" value="Timing" style="rounded=1;whiteSpace=wrap;html=1;fillColor=#008a00;fontColor=#ffffff;strokeColor=#005700;" vertex="1" parent="1">
          <mxGeometry x="1460" y="310" width="125" height="40" as="geometry" />
        </mxCell>
        <mxCell id="H0clVwA6AM328Si9RoTj-58" style="edgeStyle=orthogonalEdgeStyle;rounded=0;orthogonalLoop=1;jettySize=auto;html=1;exitX=0.5;exitY=0;exitDx=0;exitDy=0;entryX=0.25;entryY=0;entryDx=0;entryDy=0;" edge="1" parent="1" source="H0clVwA6AM328Si9RoTj-27" target="H0clVwA6AM328Si9RoTj-26">
          <mxGeometry relative="1" as="geometry" />
        </mxCell>
        <mxCell id="H0clVwA6AM328Si9RoTj-59" value="Posistion Ref" style="edgeLabel;html=1;align=center;verticalAlign=middle;resizable=0;points=[];" vertex="1" connectable="0" parent="H0clVwA6AM328Si9RoTj-58">
          <mxGeometry x="0.3116" y="-1" relative="1" as="geometry">
            <mxPoint x="-18" as="offset" />
          </mxGeometry>
        </mxCell>
        <mxCell id="H0clVwA6AM328Si9RoTj-27" value="Optical Sensor" style="rounded=0;whiteSpace=wrap;html=1;" vertex="1" parent="1">
          <mxGeometry x="1400" y="310" width="70" height="40" as="geometry" />
        </mxCell>
        <mxCell id="H0clVwA6AM328Si9RoTj-60" style="edgeStyle=orthogonalEdgeStyle;rounded=0;orthogonalLoop=1;jettySize=auto;html=1;exitX=0.5;exitY=0;exitDx=0;exitDy=0;entryX=0.75;entryY=0;entryDx=0;entryDy=0;" edge="1" parent="1" source="H0clVwA6AM328Si9RoTj-28" target="H0clVwA6AM328Si9RoTj-26">
          <mxGeometry relative="1" as="geometry" />
        </mxCell>
        <mxCell id="H0clVwA6AM328Si9RoTj-61" value="Posistion Ref 2" style="edgeLabel;html=1;align=center;verticalAlign=middle;resizable=0;points=[];" vertex="1" connectable="0" parent="H0clVwA6AM328Si9RoTj-60">
          <mxGeometry x="-0.3347" y="2" relative="1" as="geometry">
            <mxPoint x="-16" as="offset" />
          </mxGeometry>
        </mxCell>
        <mxCell id="H0clVwA6AM328Si9RoTj-28" value="Optical Sensor" style="rounded=0;whiteSpace=wrap;html=1;" vertex="1" parent="1">
          <mxGeometry x="1580" y="310" width="70" height="40" as="geometry" />
        </mxCell>
        <mxCell id="H0clVwA6AM328Si9RoTj-29" value="" style="endArrow=none;html=1;rounded=0;fillColor=#a20025;strokeColor=#6F0000;strokeWidth=5;" edge="1" parent="1">
          <mxGeometry width="50" height="50" relative="1" as="geometry">
            <mxPoint x="1590" y="420" as="sourcePoint" />
            <mxPoint x="1590" y="350" as="targetPoint" />
          </mxGeometry>
        </mxCell>
        <mxCell id="H0clVwA6AM328Si9RoTj-30" value="Beam" style="edgeLabel;html=1;align=center;verticalAlign=middle;resizable=0;points=[];" vertex="1" connectable="0" parent="H0clVwA6AM328Si9RoTj-29">
          <mxGeometry y="1" relative="1" as="geometry">
            <mxPoint x="11" y="-5" as="offset" />
          </mxGeometry>
        </mxCell>
        <mxCell id="H0clVwA6AM328Si9RoTj-31" value="" style="endArrow=none;html=1;rounded=0;fillColor=#a20025;strokeColor=#6F0000;strokeWidth=5;" edge="1" parent="1">
          <mxGeometry width="50" height="50" relative="1" as="geometry">
            <mxPoint x="1460" y="415" as="sourcePoint" />
            <mxPoint x="1460" y="345" as="targetPoint" />
          </mxGeometry>
        </mxCell>
        <mxCell id="H0clVwA6AM328Si9RoTj-32" value="Beam" style="edgeLabel;html=1;align=center;verticalAlign=middle;resizable=0;points=[];" vertex="1" connectable="0" parent="H0clVwA6AM328Si9RoTj-31">
          <mxGeometry y="1" relative="1" as="geometry">
            <mxPoint x="11" y="-5" as="offset" />
          </mxGeometry>
        </mxCell>
        <mxCell id="H0clVwA6AM328Si9RoTj-39" style="edgeStyle=orthogonalEdgeStyle;rounded=0;orthogonalLoop=1;jettySize=auto;html=1;exitX=0.5;exitY=0;exitDx=0;exitDy=0;entryX=0.75;entryY=0;entryDx=0;entryDy=0;" edge="1" parent="1">
          <mxGeometry relative="1" as="geometry">
            <mxPoint x="744" y="310" as="sourcePoint" />
            <mxPoint x="680" y="310" as="targetPoint" />
            <Array as="points">
              <mxPoint x="744" y="290" />
              <mxPoint x="680" y="290" />
            </Array>
          </mxGeometry>
        </mxCell>
        <mxCell id="H0clVwA6AM328Si9RoTj-40" value="Reset" style="edgeLabel;html=1;align=center;verticalAlign=middle;resizable=0;points=[];" vertex="1" connectable="0" parent="H0clVwA6AM328Si9RoTj-39">
          <mxGeometry x="-0.3444" relative="1" as="geometry">
            <mxPoint as="offset" />
          </mxGeometry>
        </mxCell>
        <mxCell id="H0clVwA6AM328Si9RoTj-41" style="edgeStyle=orthogonalEdgeStyle;rounded=0;orthogonalLoop=1;jettySize=auto;html=1;exitX=0.5;exitY=0;exitDx=0;exitDy=0;entryX=0.75;entryY=0;entryDx=0;entryDy=0;" edge="1" parent="1">
          <mxGeometry relative="1" as="geometry">
            <mxPoint x="1024" y="310" as="sourcePoint" />
            <mxPoint x="960" y="310" as="targetPoint" />
            <Array as="points">
              <mxPoint x="1024" y="290" />
              <mxPoint x="960" y="290" />
            </Array>
          </mxGeometry>
        </mxCell>
        <mxCell id="H0clVwA6AM328Si9RoTj-42" value="Reset" style="edgeLabel;html=1;align=center;verticalAlign=middle;resizable=0;points=[];" vertex="1" connectable="0" parent="H0clVwA6AM328Si9RoTj-41">
          <mxGeometry x="-0.3444" relative="1" as="geometry">
            <mxPoint as="offset" />
          </mxGeometry>
        </mxCell>
        <mxCell id="H0clVwA6AM328Si9RoTj-43" style="edgeStyle=orthogonalEdgeStyle;rounded=0;orthogonalLoop=1;jettySize=auto;html=1;exitX=0.5;exitY=0;exitDx=0;exitDy=0;entryX=0.75;entryY=0;entryDx=0;entryDy=0;" edge="1" parent="1">
          <mxGeometry relative="1" as="geometry">
            <mxPoint x="1307" y="310" as="sourcePoint" />
            <mxPoint x="1243" y="310" as="targetPoint" />
            <Array as="points">
              <mxPoint x="1307" y="290" />
              <mxPoint x="1243" y="290" />
            </Array>
          </mxGeometry>
        </mxCell>
        <mxCell id="H0clVwA6AM328Si9RoTj-44" value="Reset" style="edgeLabel;html=1;align=center;verticalAlign=middle;resizable=0;points=[];" vertex="1" connectable="0" parent="H0clVwA6AM328Si9RoTj-43">
          <mxGeometry x="-0.3444" relative="1" as="geometry">
            <mxPoint as="offset" />
          </mxGeometry>
        </mxCell>
        <mxCell id="H0clVwA6AM328Si9RoTj-47" style="edgeStyle=orthogonalEdgeStyle;rounded=0;orthogonalLoop=1;jettySize=auto;html=1;exitX=0.5;exitY=0;exitDx=0;exitDy=0;entryX=0;entryY=0.5;entryDx=0;entryDy=0;" edge="1" parent="1">
          <mxGeometry relative="1" as="geometry">
            <mxPoint x="652.5" y="310" as="sourcePoint" />
            <mxPoint x="872.5" y="330" as="targetPoint" />
            <Array as="points">
              <mxPoint x="652.5" y="270" />
              <mxPoint x="852.5" y="270" />
              <mxPoint x="852.5" y="330" />
            </Array>
          </mxGeometry>
        </mxCell>
        <mxCell id="H0clVwA6AM328Si9RoTj-48" value="Start" style="edgeLabel;html=1;align=center;verticalAlign=middle;resizable=0;points=[];" vertex="1" connectable="0" parent="H0clVwA6AM328Si9RoTj-47">
          <mxGeometry x="0.0063" relative="1" as="geometry">
            <mxPoint as="offset" />
          </mxGeometry>
        </mxCell>
        <mxCell id="H0clVwA6AM328Si9RoTj-49" style="edgeStyle=orthogonalEdgeStyle;rounded=0;orthogonalLoop=1;jettySize=auto;html=1;exitX=0.5;exitY=0;exitDx=0;exitDy=0;entryX=0;entryY=0.5;entryDx=0;entryDy=0;" edge="1" parent="1">
          <mxGeometry relative="1" as="geometry">
            <mxPoint x="930" y="310" as="sourcePoint" />
            <mxPoint x="1150" y="330" as="targetPoint" />
            <Array as="points">
              <mxPoint x="930" y="270" />
              <mxPoint x="1130" y="270" />
              <mxPoint x="1130" y="330" />
            </Array>
          </mxGeometry>
        </mxCell>
        <mxCell id="H0clVwA6AM328Si9RoTj-50" value="Start" style="edgeLabel;html=1;align=center;verticalAlign=middle;resizable=0;points=[];" vertex="1" connectable="0" parent="H0clVwA6AM328Si9RoTj-49">
          <mxGeometry x="0.0063" relative="1" as="geometry">
            <mxPoint as="offset" />
          </mxGeometry>
        </mxCell>
        <mxCell id="H0clVwA6AM328Si9RoTj-68" style="edgeStyle=orthogonalEdgeStyle;rounded=0;orthogonalLoop=1;jettySize=auto;html=1;exitX=0.5;exitY=0;exitDx=0;exitDy=0;" edge="1" parent="1" source="H0clVwA6AM328Si9RoTj-63">
          <mxGeometry relative="1" as="geometry">
            <mxPoint x="430" y="110" as="targetPoint" />
          </mxGeometry>
        </mxCell>
        <mxCell id="H0clVwA6AM328Si9RoTj-63" value="Processing&lt;br&gt;{arduino}" style="rounded=0;whiteSpace=wrap;html=1;fillColor=#a20025;fontColor=#ffffff;strokeColor=#6F0000;" vertex="1" parent="1">
          <mxGeometry x="370" y="160" width="120" height="60" as="geometry" />
        </mxCell>
        <mxCell id="H0clVwA6AM328Si9RoTj-69" value="Display&lt;br&gt;{I2C-&amp;gt;881}" style="rounded=0;whiteSpace=wrap;html=1;fillColor=#a20025;fontColor=#ffffff;strokeColor=#6F0000;" vertex="1" parent="1">
          <mxGeometry x="370" y="50" width="120" height="60" as="geometry" />
        </mxCell>
        <mxCell id="H0clVwA6AM328Si9RoTj-71" value="Procesing" style="swimlane;whiteSpace=wrap;html=1;fillColor=#a20025;fontColor=#ffffff;strokeColor=#6F0000;" vertex="1" parent="1">
          <mxGeometry x="170" y="500" width="255" height="200" as="geometry" />
        </mxCell>
        <mxCell id="H0clVwA6AM328Si9RoTj-72" value="The arduino will rely upon custom PCBs &lt;br&gt;to pass 5v outputs &lt;br&gt;from high speed optical sensors for T1 and T2&amp;nbsp;&lt;br&gt;and have T0 come from pushbuttons&lt;br&gt;&lt;br&gt;Later on the arduino uses these time signals&amp;nbsp;&lt;br&gt;and use the I2C protocol to the dispaly" style="text;html=1;align=center;verticalAlign=middle;resizable=0;points=[];autosize=1;strokeColor=none;fillColor=none;" vertex="1" parent="H0clVwA6AM328Si9RoTj-71">
          <mxGeometry x="-7.5" y="40" width="270" height="110" as="geometry" />
        </mxCell>
        <mxCell id="H0clVwA6AM328Si9RoTj-75" value="Control" style="swimlane;whiteSpace=wrap;html=1;fillColor=#008a00;fontColor=#ffffff;strokeColor=#005700;" vertex="1" parent="1">
          <mxGeometry x="480" y="500" width="340" height="290" as="geometry" />
        </mxCell>
        <mxCell id="H0clVwA6AM328Si9RoTj-76" value="These are the custom pcbs that will be utilized in controlling the solenoids with repeatable accurate timing.&lt;br&gt;&lt;br&gt;So far this involves&amp;nbsp;&lt;br&gt;a photo-interrrupter to comparison circuit to&amp;nbsp;&lt;br&gt;SCR to power a IGBT.&lt;br&gt;&lt;br&gt;This IGBT then passes power to the main solenoid" style="text;html=1;strokeColor=none;fillColor=none;align=center;verticalAlign=middle;whiteSpace=wrap;rounded=0;" vertex="1" parent="H0clVwA6AM328Si9RoTj-75">
          <mxGeometry y="30" width="340" height="260" as="geometry" />
        </mxCell>
        <mxCell id="H0clVwA6AM328Si9RoTj-77" value="Timing" style="swimlane;whiteSpace=wrap;html=1;fillColor=#008a00;fontColor=#ffffff;strokeColor=#005700;" vertex="1" parent="1">
          <mxGeometry x="910" y="500" width="340" height="290" as="geometry" />
        </mxCell>
        <mxCell id="H0clVwA6AM328Si9RoTj-78" value="These are the custom pcbs that will be utilized in velcoity measurements&lt;br&gt;&lt;br&gt;These will use the same photointerrupters and comparison circuits as before to get T1 and T2&lt;br&gt;&lt;br&gt;These will be used on the arduino to get overall lauch time and projectile sped&lt;br&gt;&lt;br&gt;Launch time = T1-T0&lt;br&gt;and&lt;br&gt;speed=(distance of last 2 opticals)/(T2-T1)" style="text;html=1;strokeColor=none;fillColor=none;align=center;verticalAlign=middle;whiteSpace=wrap;rounded=0;" vertex="1" parent="H0clVwA6AM328Si9RoTj-77">
          <mxGeometry y="30" width="340" height="260" as="geometry" />
        </mxCell>
      </root>
    </mxGraphModel>
  </diagram>
</mxfile>
